<?xml version="1.0" standalone="no"?>
<!DOCTYPE svg PUBLIC "-//W3C//DTD SVG 20010904//EN"
 "http://www.w3.org/TR/2001/REC-SVG-20010904/DTD/svg10.dtd">
<svg version="1.0" xmlns="http://www.w3.org/2000/svg"
 width="128.000000pt" height="128.000000pt" viewBox="0 0 128.000000 128.000000"
 preserveAspectRatio="xMidYMid meet">

<g transform="translate(0.000000,128.000000) scale(0.100000,-0.100000)"
fill="#000000" stroke="none">
<path d="M286 778 c-13 -29 -51 -114 -85 -188 -34 -74 -61 -136 -61 -137 0 -2
20 -3 45 -3 42 0 46 2 65 40 l20 40 108 0 107 0 17 -40 c16 -38 18 -40 62 -40
25 0 46 2 46 4 0 2 -37 86 -83 187 l-83 184 -67 3 -68 3 -23 -53z m120 -75
c51 -114 54 -103 -31 -103 l-75 0 26 58 c14 31 30 67 35 80 5 12 11 22 14 22
3 0 17 -26 31 -57z"/>
<path d="M624 803 c3 -16 13 -101 22 -190 l17 -163 37 0 c31 0 51 11 113 61
l76 60 74 -60 c60 -50 80 -61 110 -61 20 0 37 3 37 8 0 4 9 84 20 177 11 94
20 176 20 183 0 8 -15 12 -43 12 l-44 0 -13 -130 c-7 -72 -15 -132 -19 -134
-3 -2 -28 12 -54 31 l-47 35 0 99 0 99 -45 0 -45 0 0 -100 0 -99 -47 -36 c-25
-19 -48 -34 -50 -31 -4 3 -33 228 -33 253 0 9 -15 13 -46 13 -44 0 -45 -1 -40
-27z"/>
</g>
</svg>
